P2
9 9
255
0 32 64 96 128 160 192 224 255
32 64 96 128 160 192 224 255 224
64 96 128 160 192 224 255 224 32
96 128 160 192 224 255 224 32 64
128 160 192 224 255 224 32 64 96
160 192 224 255 224 32 64 96 128
192 224 255 224 32 64 96 128 160
224 255 224 32 64 96 128 160 192
255 224 32 64 96 128 160 192 224
